Coordinates
version=1
nRows=49
nColumns=12
inDegrees=yes

Units are S.I. units (second, meters, Newtons, ...)
Angles are in degrees

endheader
time	SC_y	SC_z	SC_x	AC_y	AC_z	AC_x	GH_y	GH_z	GH_yy	EL_x	PS_y
       0.0              -16.25        -0.7641          38.84          57.49         -17.94          3.599          48.98          40.97          172.8           48.0          55.45
   0.04365              -16.26        -0.7631          38.83          57.49         -17.94            3.6          48.96          40.97          172.7          48.02          55.46
    0.0873              -16.26         -0.762          38.83          57.49         -17.94            3.6          48.93          40.97          172.7          48.03          55.48
    0.1309              -16.27        -0.7609          38.82          57.49         -17.94            3.6          48.91          40.97          172.6          48.04          55.49
    0.1746              -16.28        -0.7597          38.82          57.49         -17.93          3.601          48.88          40.97          172.5          48.06           55.5
    0.2182              -16.28        -0.7585          38.81          57.48         -17.93          3.601          48.86          40.97          172.5          48.07          55.52
    0.2619              -16.29        -0.7571           38.8          57.48         -17.92          3.601          48.83          40.98          172.4          48.09          55.53
    0.3055               -16.3        -0.7557           38.8          57.48         -17.92          3.602           48.8          40.98          172.3          48.11          55.55
    0.3492              -16.31        -0.7542          38.79          57.48         -17.92          3.602          48.77          40.98          172.2          48.13          55.57
    0.3928              -16.32        -0.7525          38.78          57.48         -17.91          3.603          48.73          40.98          172.2          48.15          55.59
    0.4365              -16.33        -0.7507          38.77          57.47         -17.91          3.603          48.69          40.98          172.1          48.17          55.61
    0.4801              -16.34        -0.7488          38.77          57.47          -17.9          3.604          48.65          40.99          172.0          48.19          55.64
    0.5238              -16.36        -0.7468          38.76          57.47          -17.9          3.605          48.61          40.99          171.9          48.22          55.66
    0.5674              -16.37        -0.7445          38.75          57.47         -17.89          3.605          48.56          40.99          171.7          48.24          55.69
    0.6111              -16.38        -0.7421          38.74          57.46         -17.88          3.606          48.51           41.0          171.6          48.27          55.72
    0.6547               -16.4        -0.7395          38.72          57.46         -17.88          3.607          48.46           41.0          171.5          48.31          55.75
    0.6984              -16.42        -0.7367          38.71          57.46         -17.87          3.608           48.4           41.0          171.3          48.34          55.78
     0.742              -16.43        -0.7336           38.7          57.45         -17.86          3.609          48.33          41.01          171.2          48.38          55.82
    0.7857              -16.46        -0.7302          38.68          57.45         -17.85           3.61          48.26          41.01          171.0          48.42          55.86
    0.8293              -16.48        -0.7265          38.66          57.44         -17.84          3.611          48.18          41.02          170.8          48.46          55.91
     0.873               -16.5        -0.7225          38.65          57.44         -17.83          3.612          48.09          41.02          170.6          48.51          55.95
    0.9166              -16.53         -0.718          38.62          57.43         -17.82          3.613           48.0          41.03          170.4          48.57          56.01
    0.9603              -16.56        -0.7131           38.6          57.43          -17.8          3.615          47.89          41.03          170.1          48.63          56.07
     1.004              -16.59        -0.7076          38.58          57.42         -17.79          3.617          47.78          41.04          169.8           48.7          56.13
     1.048              -16.63        -0.7015          38.55          57.41         -17.77          3.618          47.65          41.05          169.5          48.77          56.21
     1.091              -16.67        -0.6948          38.52           57.4         -17.75          3.621          47.51          41.06          169.2          48.85          56.29
     1.135              -16.72        -0.6872          38.48          57.39         -17.73          3.623          47.34          41.07          168.8          48.95          56.38
     1.179              -16.77        -0.6786          38.44          57.38         -17.71          3.625          47.16          41.08          168.3          49.05          56.49
     1.222              -16.83         -0.669           38.4          57.37         -17.68          3.628          46.96          41.09          167.8          49.17           56.6
     1.266              -16.89         -0.658          38.35          57.36         -17.65          3.632          46.73          41.11          167.3          49.31          56.74
     1.309              -16.97        -0.6455          38.29          57.34         -17.62          3.636          46.46          41.12          166.6          49.46          56.89
     1.353              -17.06        -0.6312          38.23          57.32         -17.58           3.64          46.16          41.14          165.9          49.63          57.06
     1.397              -17.16        -0.6146          38.15           57.3         -17.53          3.645           45.8          41.16          165.0          49.84          57.26
      1.44              -17.27        -0.5953          38.06          57.27         -17.48          3.651           45.4          41.19          164.0          50.07           57.5
     1.484              -17.41        -0.5728          37.96          57.25         -17.41          3.658          44.92          41.22          162.8          50.35          57.77
     1.528              -17.57        -0.5463          37.84          57.21         -17.34          3.666          44.35          41.25          161.5          50.68          58.09
     1.571              -17.76        -0.5147          37.69          57.17         -17.25          3.676          43.68          41.29          159.8          51.06          58.47
     1.615              -17.99        -0.4769          37.52          57.12         -17.15          3.687          42.88          41.34          157.9          51.53          58.93
     1.659              -18.27        -0.4311          37.31          57.06         -17.02          3.701          41.91           41.4          155.5          52.09          59.49
     1.702              -18.61        -0.3752          37.06          56.99         -16.87          3.718          40.72          41.48          152.6          52.78          60.16
     1.746              -19.02        -0.3062          36.74           56.9         -16.67           3.74          39.26          41.57          149.0          53.62           61.0
      1.79              -19.54        -0.2201          36.35          56.79         -16.44          3.766          37.43          41.68          144.5          54.68          62.04
     1.833               -20.2        -0.1117          35.85          56.66         -16.13          3.799          35.13          41.82          138.9          56.01          63.36
     1.877              -21.03        0.02605          35.22          56.48         -15.75          3.841          32.21           42.0          131.8           57.7          65.03
     1.921               -22.1         0.2024          34.41          56.25         -15.26          3.895          28.46          42.24          122.6          59.86          67.16
     1.964              -23.47         0.4288          33.37          55.96         -14.64          3.965          23.66          42.53          110.9          62.64          69.91
     2.008              -25.22         0.7179          32.05          55.59         -13.83          4.053          17.52          42.91          95.86          66.19          73.41
     2.051              -27.42          1.081          30.39          55.13         -12.83          4.165          9.809          43.39           77.0          70.65          77.81
     2.095              -30.11          1.524          28.36          54.56          -11.6          4.301         0.4064          43.97          54.01          76.08          83.18
